<svg xmlns="http://www.w3.org/2000/svg" viewBox="0 0 24 24"><title>linguize glyph</title><path fill="#000" d="M10.086 20.32L22 20.32L22 17.458L14.585 17.458L21.583 4.538L21.583 3.68L10.294 3.68L10.294 6.542L17.083 6.542L10.086 19.462ZM5.761 12L5.757 11.877L5.745 11.755L5.725 11.633L5.697 11.513L5.661 11.396L5.618 11.28L5.567 11.168L5.509 11.06L5.444 10.955L5.372 10.855L5.294 10.76L5.21 10.67L5.12 10.586L5.025 10.508L4.925 10.437L4.821 10.372L4.712 10.314L4.6 10.263L4.485 10.219L4.367 10.184L4.247 10.156L4.126 10.136L4.003 10.124L3.88 10.12L3.757 10.124L3.635 10.136L3.514 10.156L3.394 10.184L3.276 10.219L3.161 10.263L3.049 10.314L2.94 10.372L2.836 10.437L2.736 10.508L2.641 10.586L2.551 10.67L2.467 10.76L2.389 10.855L2.317 10.955L2.252 11.06L2.194 11.168L2.143 11.28L2.1 11.396L2.064 11.513L2.036 11.633L2.016 11.755L2.004 11.877L2 12L2.004 12.123L2.016 12.245L2.036 12.367L2.064 12.487L2.1 12.604L2.143 12.72L2.194 12.832L2.252 12.94L2.317 13.045L2.389 13.145L2.467 13.24L2.551 13.33L2.641 13.414L2.736 13.492L2.836 13.563L2.94 13.628L3.049 13.686L3.161 13.737L3.276 13.781L3.394 13.816L3.514 13.844L3.635 13.864L3.757 13.876L3.88 13.88L4.003 13.876L4.126 13.864L4.247 13.844L4.367 13.816L4.485 13.781L4.6 13.737L4.712 13.686L4.821 13.628L4.925 13.563L5.025 13.492L5.12 13.414L5.21 13.33L5.294 13.24L5.372 13.145L5.444 13.045L5.509 12.94L5.567 12.832L5.618 12.72L5.661 12.604L5.697 12.487L5.725 12.367L5.745 12.245L5.757 12.123Z"/></svg>
